<svg width="33" height="32" viewBox="0 0 33 32" fill="none" xmlns="http://www.w3.org/2000/svg">
<path d="M23.9377 5.90935L21.271 4.50935C18.9297 3.28135 17.759 2.66669 16.5003 2.66669C15.2417 2.66669 14.071 3.28002 11.7297 4.50935L11.3017 4.73469L23.199 11.5334L28.5537 8.85335C27.6923 7.87735 26.303 7.14802 23.9377 5.90669M29.4977 10.6187L24.167 13.2854V17.3334C24.167 17.5986 24.0616 17.8529 23.8741 18.0405C23.6866 18.228 23.4322 18.3334 23.167 18.3334C22.9018 18.3334 22.6474 18.228 22.4599 18.0405C22.2723 17.8529 22.167 17.5986 22.167 17.3334V14.2854L17.5003 16.6187V29.2054C18.4577 28.9667 19.547 28.396 21.271 27.4907L23.9377 26.0907C26.8057 24.5854 28.2403 23.8334 29.0377 22.48C29.8337 21.128 29.8337 19.444 29.8337 16.08V15.924C29.8337 13.4 29.8337 11.8214 29.4977 10.6187ZM15.5003 29.2054V16.6187L3.50299 10.6187C3.16699 11.8214 3.16699 13.4 3.16699 15.9214V16.0774C3.16699 19.444 3.16699 21.128 3.96299 22.48C4.76033 23.8334 6.19499 24.5867 9.06299 26.092L11.7297 27.4907C13.4537 28.396 14.543 28.9667 15.5003 29.2054ZM4.44699 8.85469L16.5003 14.8814L21.0483 12.608L9.20033 5.83735L9.06299 5.90935C6.69899 7.14935 5.30833 7.87869 4.44699 8.85602" fill="#2C2D5B"/>
</svg>
