<svg width="28" height="28" viewBox="0 0 28 28" fill="none" xmlns="http://www.w3.org/2000/svg">
<path d="M18 6C18 7.5913 17.3679 9.11742 16.2426 10.2426C15.1174 11.3679 13.5913 12 12 12C10.4087 12 8.88258 11.3679 7.75736 10.2426C6.63214 9.11742 6 7.5913 6 6C6 4.4087 6.63214 2.88258 7.75736 1.75736C8.88258 0.632141 10.4087 0 12 0C13.5913 0 15.1174 0.632141 16.2426 1.75736C17.3679 2.88258 18 4.4087 18 6ZM0 22C0 24 2 24 2 24H12.512C12.1723 23.0363 11.9991 22.0218 12 21C12 19.7139 12.2756 18.4428 12.8083 17.2722C13.3409 16.1016 14.1183 15.0588 15.088 14.214C14.1547 14.074 13.1253 14.0027 12 14C2 14 0 20 0 22Z" fill="#FF6B00"/>
<path d="M28 21C28 22.8565 27.2625 24.637 25.9497 25.9497C24.637 27.2625 22.8565 28 21 28C19.1435 28 17.363 27.2625 16.0503 25.9497C14.7375 24.637 14 22.8565 14 21C14 19.1435 14.7375 17.363 16.0503 16.0503C17.363 14.7375 19.1435 14 21 14C22.8565 14 24.637 14.7375 25.9497 16.0503C27.2625 17.363 28 19.1435 28 21ZM21 17C20.7348 17 20.4804 17.1054 20.2929 17.2929C20.1054 17.4804 20 17.7348 20 18V21C20 21.2652 20.1054 21.5196 20.2929 21.7071C20.4804 21.8946 20.7348 22 21 22C21.2652 22 21.5196 21.8946 21.7071 21.7071C21.8946 21.5196 22 21.2652 22 21V18C22 17.7348 21.8946 17.4804 21.7071 17.2929C21.5196 17.1054 21.2652 17 21 17ZM21 25C21.2652 25 21.5196 24.8946 21.7071 24.7071C21.8946 24.5196 22 24.2652 22 24C22 23.7348 21.8946 23.4804 21.7071 23.2929C21.5196 23.1054 21.2652 23 21 23C20.7348 23 20.4804 23.1054 20.2929 23.2929C20.1054 23.4804 20 23.7348 20 24C20 24.2652 20.1054 24.5196 20.2929 24.7071C20.4804 24.8946 20.7348 25 21 25Z" fill="#FF6B00"/>
</svg>
