<svg width="15" height="17" viewBox="0 0 15 17" fill="none" xmlns="http://www.w3.org/2000/svg">
<path d="M4.16667 5C3.94565 5 3.73369 5.0878 3.57741 5.24408C3.42113 5.40036 3.33333 5.61232 3.33333 5.83333C3.33333 6.05435 3.42113 6.26631 3.57741 6.42259C3.73369 6.57887 3.94565 6.66667 4.16667 6.66667H5C5.22101 6.66667 5.43298 6.57887 5.58926 6.42259C5.74554 6.26631 5.83333 6.05435 5.83333 5.83333C5.83333 5.61232 5.74554 5.40036 5.58926 5.24408C5.43298 5.0878 5.22101 5 5 5H4.16667ZM8.33333 15H2.5C2.27899 15 2.06702 14.9122 1.91074 14.7559C1.75446 14.5996 1.66667 14.3877 1.66667 14.1667V2.5C1.66667 2.27899 1.75446 2.06702 1.91074 1.91074C2.06702 1.75446 2.27899 1.66667 2.5 1.66667H6.66667V4.16667C6.66667 4.82971 6.93006 5.46559 7.3989 5.93443C7.86774 6.40327 8.50363 6.66667 9.16667 6.66667H11.6667V8.33333C11.6667 8.55435 11.7545 8.76631 11.9107 8.92259C12.067 9.07887 12.279 9.16667 12.5 9.16667C12.721 9.16667 12.933 9.07887 13.0893 8.92259C13.2455 8.76631 13.3333 8.55435 13.3333 8.33333V5.78333C13.3247 5.70677 13.308 5.63134 13.2833 5.55833V5.48333C13.2442 5.39713 13.1906 5.31822 13.125 5.25L8.125 0.25C8.05678 0.184351 7.97787 0.130806 7.89167 0.0916666C7.86409 0.0870043 7.83592 0.0870043 7.80833 0.0916666C7.7273 0.0483359 7.64022 0.017435 7.55 0H2.5C1.83696 0 1.20107 0.263392 0.732233 0.732233C0.263392 1.20107 0 1.83696 0 2.5V14.1667C0 14.8297 0.263392 15.4656 0.732233 15.9344C1.20107 16.4033 1.83696 16.6667 2.5 16.6667H8.33333C8.55435 16.6667 8.76631 16.5789 8.92259 16.4226C9.07887 16.2663 9.16667 16.0543 9.16667 15.8333C9.16667 15.6123 9.07887 15.4004 8.92259 15.2441C8.76631 15.0878 8.55435 15 8.33333 15ZM8.33333 2.84167L10.4917 5H9.16667C8.94565 5 8.73369 4.9122 8.57741 4.75592C8.42113 4.59964 8.33333 4.38768 8.33333 4.16667V2.84167ZM9.16667 8.33333H4.16667C3.94565 8.33333 3.73369 8.42113 3.57741 8.57741C3.42113 8.73369 3.33333 8.94565 3.33333 9.16667C3.33333 9.38768 3.42113 9.59964 3.57741 9.75592C3.73369 9.9122 3.94565 10 4.16667 10H9.16667C9.38768 10 9.59964 9.9122 9.75592 9.75592C9.9122 9.59964 10 9.38768 10 9.16667C10 8.94565 9.9122 8.73369 9.75592 8.57741C9.59964 8.42113 9.38768 8.33333 9.16667 8.33333ZM14.7583 13.575C14.6809 13.4969 14.5887 13.4349 14.4871 13.3926C14.3856 13.3503 14.2767 13.3285 14.1667 13.3285C14.0567 13.3285 13.9477 13.3503 13.8462 13.3926C13.7446 13.4349 13.6525 13.4969 13.575 13.575L13.3333 13.825V11.6667C13.3333 11.4457 13.2455 11.2337 13.0893 11.0774C12.933 10.9211 12.721 10.8333 12.5 10.8333C12.279 10.8333 12.067 10.9211 11.9107 11.0774C11.7545 11.2337 11.6667 11.4457 11.6667 11.6667V13.825L11.425 13.575C11.2681 13.4181 11.0553 13.3299 10.8333 13.3299C10.6114 13.3299 10.3986 13.4181 10.2417 13.575C10.0847 13.7319 9.99659 13.9447 9.99659 14.1667C9.99659 14.3886 10.0847 14.6014 10.2417 14.7583L11.9083 16.425C11.9876 16.5009 12.081 16.5603 12.1833 16.6C12.2831 16.6441 12.3909 16.6669 12.5 16.6669C12.6091 16.6669 12.7169 16.6441 12.8167 16.6C12.919 16.5603 13.0124 16.5009 13.0917 16.425L14.7583 14.7583C14.8364 14.6809 14.8984 14.5887 14.9407 14.4871C14.9831 14.3856 15.0048 14.2767 15.0048 14.1667C15.0048 14.0567 14.9831 13.9477 14.9407 13.8462C14.8984 13.7446 14.8364 13.6525 14.7583 13.575ZM7.5 13.3333C7.72101 13.3333 7.93298 13.2455 8.08926 13.0893C8.24554 12.933 8.33333 12.721 8.33333 12.5C8.33333 12.279 8.24554 12.067 8.08926 11.9107C7.93298 11.7545 7.72101 11.6667 7.5 11.6667H4.16667C3.94565 11.6667 3.73369 11.7545 3.57741 11.9107C3.42113 12.067 3.33333 12.279 3.33333 12.5C3.33333 12.721 3.42113 12.933 3.57741 13.0893C3.73369 13.2455 3.94565 13.3333 4.16667 13.3333H7.5Z" fill="#9CA3AF"/>
</svg>
