<svg width="28" height="28" viewBox="0 0 28 28" fill="none" xmlns="http://www.w3.org/2000/svg">
<path d="M21 28C22.8565 28 24.637 27.2625 25.9497 25.9497C27.2625 24.637 28 22.8565 28 21C28 19.1435 27.2625 17.363 25.9497 16.0503C24.637 14.7375 22.8565 14 21 14C19.1435 14 17.363 14.7375 16.0503 16.0503C14.7375 17.363 14 19.1435 14 21C14 22.8565 14.7375 24.637 16.0503 25.9497C17.363 27.2625 19.1435 28 21 28ZM24.358 19.014L21.688 23.466C21.5707 23.6616 21.4103 23.8279 21.219 23.9521C21.0278 24.0764 20.8107 24.1554 20.5843 24.1832C20.3579 24.211 20.1282 24.1868 19.9126 24.1124C19.6969 24.038 19.5011 23.9154 19.34 23.754L17.792 22.208C17.6042 22.0202 17.4987 21.7656 17.4987 21.5C17.4987 21.2344 17.6042 20.9798 17.792 20.792C17.9798 20.6042 18.2344 20.4987 18.5 20.4987C18.7656 20.4987 19.0202 20.6042 19.208 20.792L20.302 21.888L22.642 17.986C22.7095 17.8733 22.7985 17.775 22.904 17.6968C23.0095 17.6185 23.1294 17.5618 23.2568 17.5299C23.3842 17.4979 23.5166 17.4914 23.6465 17.5106C23.7765 17.5299 23.9013 17.5745 24.014 17.642C24.1267 17.7095 24.225 17.7985 24.3032 17.904C24.3815 18.0095 24.4382 18.1294 24.4701 18.2568C24.5021 18.3842 24.5086 18.5166 24.4894 18.6465C24.4701 18.7765 24.4255 18.9013 24.358 19.014ZM18 6C18 7.5913 17.3679 9.11742 16.2426 10.2426C15.1174 11.3679 13.5913 12 12 12C10.4087 12 8.88258 11.3679 7.75736 10.2426C6.63214 9.11742 6 7.5913 6 6C6 4.4087 6.63214 2.88258 7.75736 1.75736C8.88258 0.632141 10.4087 0 12 0C13.5913 0 15.1174 0.632141 16.2426 1.75736C17.3679 2.88258 18 4.4087 18 6Z" fill="#318F3F"/>
<path d="M0 22C0 24 2 24 2 24H12.512C12.1723 23.0363 11.9991 22.0218 12 21C12 19.7139 12.2756 18.4428 12.8083 17.2722C13.3409 16.1016 14.1183 15.0588 15.088 14.214C14.1547 14.074 13.1253 14.0027 12 14C2 14 0 20 0 22Z" fill="#318F3F"/>
</svg>
