<svg width="32" height="32" viewBox="0 0 32 32" fill="none" xmlns="http://www.w3.org/2000/svg">
<path d="M27.9399 11.7387V14.6853C27.9399 14.9505 27.8345 15.2049 27.647 15.3924C27.4594 15.58 27.2051 15.6853 26.9399 15.6853C26.6747 15.6853 26.4203 15.58 26.2328 15.3924C26.0452 15.2049 25.9399 14.9505 25.9399 14.6853V11.7387C25.9484 11.3928 25.8895 11.0487 25.7665 10.7253L16.0332 16.5653V27.4853C16.187 27.44 16.3336 27.3778 16.4732 27.2987L19.8465 25.432C20.0756 25.3113 20.3426 25.2841 20.5912 25.3563C20.8399 25.4284 21.0509 25.5941 21.1799 25.8187C21.2995 26.0493 21.3246 26.3175 21.25 26.5663C21.1753 26.8152 21.0067 27.0253 20.7799 27.152L17.4199 29.0187C16.6819 29.4296 15.8512 29.6454 15.0065 29.6454C14.1618 29.6454 13.3312 29.4296 12.5932 29.0187L4.5932 24.6187C3.82118 24.1807 3.17812 23.5472 2.72872 22.7818C2.27932 22.0165 2.03943 21.1462 2.0332 20.2587V11.7387C2.0332 10.8467 2.2732 9.97199 2.72654 9.20532C2.80387 9.06754 2.89276 8.93865 2.9932 8.81865C3.03999 8.74701 3.09358 8.68003 3.1532 8.61865C3.54166 8.1096 4.03213 7.68725 4.5932 7.37865L12.5932 2.96532C13.3346 2.56504 14.164 2.35547 15.0065 2.35547C15.8491 2.35547 16.6784 2.56504 17.4199 2.96532L25.4199 7.37865C25.9812 7.68665 26.4719 8.10932 26.8599 8.61865L27.0199 8.81865C27.1212 8.93865 27.2101 9.06754 27.2865 9.20532C27.7321 9.97404 27.9581 10.8503 27.9399 11.7387Z" fill="#318F3F"/>
<path d="M24.6982 24.352C24.4747 24.3545 24.2529 24.3138 24.0449 24.232C23.8361 24.1386 23.6463 24.0075 23.4849 23.8454L21.6182 21.9787C21.5234 21.8871 21.4479 21.7773 21.3964 21.6559C21.3449 21.5345 21.3184 21.4039 21.3184 21.272C21.3184 21.1402 21.3449 21.0096 21.3964 20.8882C21.4479 20.7668 21.5234 20.657 21.6182 20.5654C21.8057 20.3781 22.0599 20.2729 22.3249 20.2729C22.5899 20.2729 22.844 20.3781 23.0315 20.5654L24.6982 22.232L28.2849 18.6587C28.4744 18.4821 28.7252 18.3859 28.9842 18.3905C29.2433 18.395 29.4905 18.5 29.6737 18.6832C29.8569 18.8664 29.9619 19.1136 29.9664 19.3727C29.971 19.6317 29.8748 19.8825 29.6982 20.072L25.9115 23.8587C25.7561 24.0151 25.5699 24.1377 25.3649 24.2187C25.1548 24.3104 24.9274 24.3559 24.6982 24.352Z" fill="#318F3F"/>
</svg>
