<svg width="26" height="26" viewBox="0 0 26 26" fill="none" xmlns="http://www.w3.org/2000/svg">
<path d="M0.00024159 2.36691C-0.00424885 2.05487 0.0538997 1.7451 0.171246 1.45594C0.288592 1.16677 0.462752 0.904084 0.683418 0.683418C0.904084 0.462752 1.16677 0.288592 1.45594 0.171246C1.7451 0.0538997 2.05487 -0.00424885 2.36691 0.00024159L12.3509 0.126908C13.3091 0.138507 14.2246 0.524731 14.9016 1.20291L24.6336 10.9336C25.1976 11.4976 25.6976 12.3122 25.9029 13.1829C26.1109 14.0682 26.0309 15.1509 25.1976 15.9829L15.9842 25.1976C15.1509 26.0309 14.0682 26.1109 13.1829 25.9029C12.3327 25.6895 11.5557 25.251 10.9336 24.6336L1.20291 14.9016C0.525927 14.2238 0.139918 13.3088 0.126908 12.3509L0.00024159 2.36691ZM7.45624 5.42024C7.26667 5.2436 7.01595 5.14744 6.75688 5.15201C6.49781 5.15658 6.25063 5.26153 6.06741 5.44475C5.8842 5.62796 5.77925 5.87514 5.77467 6.13421C5.7701 6.39328 5.86627 6.64401 6.04291 6.83358L6.98557 7.77758C7.17426 7.95965 7.42691 8.06032 7.68911 8.05792C7.95131 8.05552 8.20207 7.95023 8.38739 7.76474C8.57271 7.57924 8.67776 7.32838 8.67992 7.06618C8.68207 6.80398 8.58116 6.55142 8.39891 6.36291L7.45624 5.42024Z" fill="#2C2D5B"/>
</svg>
