<svg width="32" height="32" viewBox="0 0 32 32" fill="none" xmlns="http://www.w3.org/2000/svg">
<path d="M27.9389 11.7387V14.6853C27.9389 14.9505 27.8335 15.2049 27.646 15.3924C27.4585 15.58 27.2041 15.6853 26.9389 15.6853C26.6737 15.6853 26.4193 15.58 26.2318 15.3924C26.0442 15.2049 25.9389 14.9505 25.9389 14.6853V11.7387C25.9474 11.3928 25.8885 11.0487 25.7656 10.7253L16.0322 16.5653V27.4853C16.186 27.44 16.3327 27.3778 16.4722 27.2987L19.8456 25.432C20.0746 25.3113 20.3416 25.2841 20.5903 25.3563C20.8389 25.4284 21.0499 25.5941 21.1789 25.8187C21.2985 26.0493 21.3236 26.3175 21.249 26.5663C21.1743 26.8152 21.0057 27.0253 20.7789 27.152L17.4189 29.0187C16.6809 29.4296 15.8502 29.6454 15.0056 29.6454C14.1609 29.6454 13.3302 29.4296 12.5922 29.0187L4.59223 24.6187C3.82021 24.1807 3.17714 23.5472 2.72774 22.7818C2.27834 22.0165 2.03846 21.1462 2.03223 20.2587V11.7387C2.03223 10.8467 2.27223 9.97199 2.72556 9.20532C2.80289 9.06754 2.89178 8.93865 2.99223 8.81865C3.03902 8.74701 3.0926 8.68003 3.15223 8.61865C3.54069 8.1096 4.03115 7.68725 4.59223 7.37865L12.5922 2.96532C13.3336 2.56504 14.163 2.35547 15.0056 2.35547C15.8481 2.35547 16.6775 2.56504 17.4189 2.96532L25.4189 7.37865C25.9802 7.68665 26.4709 8.10932 26.8589 8.61865L27.0189 8.81865C27.1202 8.93865 27.2091 9.06754 27.2856 9.20532C27.7311 9.97404 27.9571 10.8503 27.9389 11.7387Z" fill="#4F46E5"/>
<path d="M24.6992 24.352C24.4757 24.3545 24.2538 24.3138 24.0458 24.232C23.8371 24.1386 23.6472 24.0075 23.4858 23.8454L21.6192 21.9787C21.5243 21.8871 21.4489 21.7773 21.3974 21.6559C21.3459 21.5345 21.3193 21.4039 21.3193 21.272C21.3193 21.1402 21.3459 21.0096 21.3974 20.8882C21.4489 20.7668 21.5243 20.657 21.6192 20.5654C21.8067 20.3781 22.0608 20.2729 22.3258 20.2729C22.5908 20.2729 22.845 20.3781 23.0325 20.5654L24.6992 22.232L28.2858 18.6587C28.4754 18.4821 28.7261 18.3859 28.9852 18.3905C29.2443 18.395 29.4914 18.5 29.6747 18.6832C29.8579 18.8664 29.9628 19.1136 29.9674 19.3727C29.972 19.6317 29.8758 19.8825 29.6992 20.072L25.9125 23.8587C25.757 24.0151 25.5709 24.1377 25.3658 24.2187C25.1557 24.3104 24.9284 24.3559 24.6992 24.352Z" fill="#4F46E5"/>
</svg>
