<svg width="18" height="18" viewBox="0 0 18 18" fill="none" xmlns="http://www.w3.org/2000/svg">
<path d="M8.33398 1.66357H2.50065C2.05862 1.66357 1.6347 1.83917 1.32214 2.15173C1.00958 2.46429 0.833984 2.88821 0.833984 3.33024V14.9969C0.833984 15.4389 1.00958 15.8629 1.32214 16.1754C1.6347 16.488 2.05862 16.6636 2.50065 16.6636H14.1673C14.6093 16.6636 15.0333 16.488 15.3458 16.1754C15.6584 15.8629 15.834 15.4389 15.834 14.9969V9.16357" stroke="#9CA3AF" stroke-width="1.66667" stroke-linecap="round" stroke-linejoin="round"/>
<path d="M13.6472 1.35126C13.9787 1.01974 14.4284 0.833496 14.8972 0.833496C15.3661 0.833496 15.8157 1.01974 16.1472 1.35126C16.4787 1.68278 16.665 2.13242 16.665 2.60126C16.665 3.0701 16.4787 3.51974 16.1472 3.85126L8.63638 11.3629C8.43851 11.5606 8.19405 11.7054 7.92555 11.7838L5.53138 12.4838C5.45967 12.5047 5.38366 12.5059 5.3113 12.4874C5.23895 12.4689 5.1729 12.4312 5.12009 12.3784C5.06727 12.3256 5.02962 12.2595 5.01108 12.1872C4.99255 12.1148 4.9938 12.0388 5.01471 11.9671L5.71471 9.57293C5.79349 9.30464 5.93849 9.06048 6.13638 8.86293L13.6472 1.35126Z" stroke="#9CA3AF" stroke-width="1.66667" stroke-linecap="round" stroke-linejoin="round"/>
</svg>
