<svg width="32" height="32" viewBox="0 0 32 32" fill="none" xmlns="http://www.w3.org/2000/svg">
<path d="M27.9993 5.33331H3.99935C3.64573 5.33331 3.30659 5.47379 3.05654 5.72384C2.80649 5.97389 2.66602 6.31302 2.66602 6.66665V25.3333C2.66602 25.6869 2.80649 26.0261 3.05654 26.2761C3.30659 26.5262 3.64573 26.6666 3.99935 26.6666H27.9993C28.353 26.6666 28.6921 26.5262 28.9422 26.2761C29.1922 26.0261 29.3327 25.6869 29.3327 25.3333V6.66665C29.3327 6.31302 29.1922 5.97389 28.9422 5.72384C28.6921 5.47379 28.353 5.33331 27.9993 5.33331ZM26.666 20C25.6051 20 24.5877 20.4214 23.8376 21.1716C23.0874 21.9217 22.666 22.9391 22.666 24H9.33268C9.33268 22.9391 8.91125 21.9217 8.16111 21.1716C7.41096 20.4214 6.39355 20 5.33268 20V12C6.39355 12 7.41096 11.5786 8.16111 10.8284C8.91125 10.0783 9.33268 9.06085 9.33268 7.99998H22.666C22.666 9.06085 23.0874 10.0783 23.8376 10.8284C24.5877 11.5786 25.6051 12 26.666 12V20Z" fill="#16A34A"/>
<path d="M15.9993 10.6667C13.058 10.6667 10.666 13.0587 10.666 16C10.666 18.9414 13.058 21.3334 15.9993 21.3334C18.9407 21.3334 21.3327 18.9414 21.3327 16C21.3327 13.0587 18.9407 10.6667 15.9993 10.6667ZM15.9993 18.6667C14.5287 18.6667 13.3327 17.4707 13.3327 16C13.3327 14.5294 14.5287 13.3334 15.9993 13.3334C17.47 13.3334 18.666 14.5294 18.666 16C18.666 17.4707 17.47 18.6667 15.9993 18.6667Z" fill="#16A34A"/>
</svg>
