<svg width="28" height="28" viewBox="0 0 28 28" fill="none" xmlns="http://www.w3.org/2000/svg">
<path d="M23.758 16.828C22.7962 16.1933 21.6448 15.9101 20.4983 16.0263C19.3518 16.1425 18.2807 16.651 17.4658 17.4658C16.651 18.2807 16.1425 19.3518 16.0263 20.4983C15.9101 21.6448 16.1933 22.7962 16.828 23.758L23.758 16.828ZM25.172 18.242L18.242 25.172C19.2038 25.8067 20.3552 26.0899 21.5017 25.9737C22.6482 25.8575 23.7193 25.349 24.5342 24.5342C25.349 23.7193 25.8575 22.6482 25.9737 21.5017C26.0899 20.3552 25.8067 19.2038 25.172 18.242ZM16.052 16.05C16.6997 15.3894 17.4719 14.8637 18.3239 14.5034C19.176 14.143 20.0911 13.9551 21.0162 13.9506C21.9413 13.9461 22.8582 14.125 23.7138 14.4769C24.5693 14.8289 25.3466 15.347 26.0007 16.0013C26.6549 16.6555 27.1728 17.4329 27.5246 18.2886C27.8764 19.1442 28.0551 20.0611 28.0504 20.9862C28.0457 21.9113 27.8576 22.8264 27.4971 23.6784C27.1366 24.5304 26.6108 25.3025 25.95 25.95C24.6372 27.2628 22.8566 28.0004 21 28.0004C19.1434 28.0004 17.3628 27.2628 16.05 25.95C14.7372 24.6372 13.9996 22.8566 13.9996 21C13.9996 19.1434 14.7372 17.3628 16.05 16.05H16.052ZM18 6C18 7.5913 17.3679 9.11742 16.2426 10.2426C15.1174 11.3679 13.5913 12 12 12C10.4087 12 8.88258 11.3679 7.75736 10.2426C6.63214 9.11742 6 7.5913 6 6C6 4.4087 6.63214 2.88258 7.75736 1.75736C8.88258 0.632141 10.4087 0 12 0C13.5913 0 15.1174 0.632141 16.2426 1.75736C17.3679 2.88258 18 4.4087 18 6ZM0 22C0 24 2 24 2 24H12.512C12.1723 23.0363 11.9991 22.0218 12 21C12 19.7139 12.2756 18.4428 12.8083 17.2722C13.3409 16.1016 14.1183 15.0588 15.088 14.214C14.1547 14.074 13.1253 14.0027 12 14C2 14 0 20 0 22Z" fill="url(#paint0_linear_1180_8200)"/>
<defs>
<linearGradient id="paint0_linear_1180_8200" x1="0" y1="14.0002" x2="28.0505" y2="14.0002" gradientUnits="userSpaceOnUse">
<stop stop-color="#FF6B00"/>
<stop offset="1" stop-color="#FF914D"/>
</linearGradient>
</defs>
</svg>
