<svg width="27" height="27" viewBox="0 0 27 27" fill="none" xmlns="http://www.w3.org/2000/svg">
<path d="M20.7707 3.24267L18.104 1.84267C15.7627 0.614667 14.592 0 13.3333 0C12.0747 0 10.904 0.613333 8.56267 1.84267L8.13467 2.068L20.032 8.86667L25.3867 6.18667C24.5253 5.21067 23.136 4.48133 20.7707 3.24M26.3307 7.952L21 10.6187V14.6667C21 14.9319 20.8946 15.1862 20.7071 15.3738C20.5196 15.5613 20.2652 15.6667 20 15.6667C19.7348 15.6667 19.4804 15.5613 19.2929 15.3738C19.1054 15.1862 19 14.9319 19 14.6667V11.6187L14.3333 13.952V26.5387C15.2907 26.3 16.38 25.7293 18.104 24.824L20.7707 23.424C23.6387 21.9187 25.0733 21.1667 25.8707 19.8133C26.6667 18.4613 26.6667 16.7773 26.6667 13.4133V13.2573C26.6667 10.7333 26.6667 9.15467 26.3307 7.952ZM12.3333 26.5387V13.952L0.336 7.952C1.19209e-07 9.15467 0 10.7333 0 13.2547V13.4107C0 16.7773 -1.58946e-07 18.4613 0.796 19.8133C1.59333 21.1667 3.028 21.92 5.896 23.4253L8.56267 24.824C10.2867 25.7293 11.376 26.3 12.3333 26.5387ZM1.28 6.188L13.3333 12.2147L17.8813 9.94133L6.03333 3.17067L5.896 3.24267C3.532 4.48267 2.14133 5.212 1.28 6.18933" fill="#4F46E5"/>
</svg>
