<svg width="28" height="28" viewBox="0 0 28 28" fill="none" xmlns="http://www.w3.org/2000/svg">
<path d="M15.212 0.366361C14.0072 -0.12212 12.6595 -0.12212 11.4547 0.366361L8.53467 1.55036L21.324 6.52369L25.8227 4.78636C25.6377 4.63422 25.4309 4.51063 25.2093 4.41969L15.212 0.366361ZM26.6667 6.60369L14.3333 11.369V14.4357C15.1429 13.5659 16.1232 12.8725 17.2129 12.3987C18.3027 11.925 19.4784 11.6811 20.6667 11.6824C22.996 11.6824 25.1093 12.601 26.6667 14.0957V6.60369ZM12.3333 11.369V17.9624C12.1115 18.7389 11.9993 19.5427 12 20.3504C12 21.1784 12.116 21.9797 12.3333 22.737V25.933C12.0334 25.87 11.7394 25.7812 11.4547 25.6677L1.45733 21.6144C1.02671 21.4399 0.657964 21.1409 0.39833 20.7556C0.138697 20.3703 -2.7007e-06 19.9163 0 19.4517V6.60503L12.3333 11.369ZM0.844 4.78636L13.3333 9.61169L18.556 7.59303L5.832 2.64636L1.45733 4.41969C1.22978 4.51214 1.02533 4.63436 0.844 4.78636ZM28 20.349C28 22.2939 27.2274 24.1592 25.8521 25.5345C24.4769 26.9097 22.6116 27.6824 20.6667 27.6824C18.7217 27.6824 16.8565 26.9097 15.4812 25.5345C14.106 24.1592 13.3333 22.2939 13.3333 20.349C13.3333 18.4041 14.106 16.5388 15.4812 15.1636C16.8565 13.7883 18.7217 13.0157 20.6667 13.0157C22.6116 13.0157 24.4769 13.7883 25.8521 15.1636C27.2274 16.5388 28 18.4041 28 20.349ZM18.472 17.2104C18.347 17.0852 18.1774 17.0148 18.0005 17.0147C17.8236 17.0145 17.6538 17.0847 17.5287 17.2097C17.4035 17.3347 17.3331 17.5043 17.333 17.6812C17.3328 17.8581 17.403 18.0278 17.528 18.153L19.724 20.349L17.528 22.5437C17.4028 22.6689 17.3325 22.8387 17.3325 23.0157C17.3325 23.1927 17.4028 23.3625 17.528 23.4877C17.6532 23.6129 17.823 23.6832 18 23.6832C18.177 23.6832 18.3468 23.6129 18.472 23.4877L20.6667 21.2917L22.8613 23.4877C22.9233 23.5497 22.9969 23.5988 23.0779 23.6324C23.1589 23.6659 23.2457 23.6832 23.3333 23.6832C23.421 23.6832 23.5078 23.6659 23.5888 23.6324C23.6698 23.5988 23.7434 23.5497 23.8053 23.4877C23.8673 23.4257 23.9165 23.3521 23.95 23.2711C23.9836 23.1902 24.0008 23.1034 24.0008 23.0157C24.0008 22.928 23.9836 22.8412 23.95 22.7602C23.9165 22.6793 23.8673 22.6057 23.8053 22.5437L21.6093 20.349L23.8053 18.153C23.9303 18.0278 24.0005 17.8581 24.0004 17.6812C24.0002 17.5043 23.9298 17.3347 23.8047 17.2097C23.6795 17.0847 23.5098 17.0145 23.3329 17.0147C23.156 17.0148 22.9863 17.0852 22.8613 17.2104L20.6667 19.4077L18.472 17.2104Z" fill="#FF0909"/>
</svg>
