<svg width="18" height="13" viewBox="0 0 18 13" fill="none" xmlns="http://www.w3.org/2000/svg">
<path d="M16.9117 5.6625C17.165 6.0175 17.2917 6.19583 17.2917 6.45833C17.2917 6.72167 17.165 6.89917 16.9117 7.25417C15.7733 8.85083 12.8658 12.2917 8.95833 12.2917C5.05 12.2917 2.14333 8.85 1.005 7.25417C0.751667 6.89917 0.625 6.72083 0.625 6.45833C0.625 6.195 0.751667 6.0175 1.005 5.6625C2.14333 4.06583 5.05083 0.625 8.95833 0.625C12.8667 0.625 15.7733 4.06667 16.9117 5.6625Z" stroke="#9CA3AF" stroke-width="1.25" stroke-linecap="round" stroke-linejoin="round"/>
<path d="M11.459 6.4585C11.459 5.79545 11.1956 5.15957 10.7268 4.69073C10.2579 4.22189 9.62203 3.9585 8.95898 3.9585C8.29594 3.9585 7.66006 4.22189 7.19122 4.69073C6.72238 5.15957 6.45898 5.79545 6.45898 6.4585C6.45898 7.12154 6.72238 7.75742 7.19122 8.22626C7.66006 8.6951 8.29594 8.9585 8.95898 8.9585C9.62203 8.9585 10.2579 8.6951 10.7268 8.22626C11.1956 7.75742 11.459 7.12154 11.459 6.4585Z" stroke="#9CA3AF" stroke-width="1.25" stroke-linecap="round" stroke-linejoin="round"/>
</svg>
